<?xml version="1.0" encoding="UTF-8" standalone="no"?>
<svg
   shape-rendering="geometricPrecision"
   width="4000"
   height="1300"
   viewBox="0 0 737 239.525"
   version="1.1"
   id="svg33"
   sodipodi:docname="transparent-logo.svg"
   inkscape:export-filename="transparent-logo.svg"
   inkscape:export-xdpi="99.352684"
   inkscape:export-ydpi="99.352684"
   inkscape:version="1.4.2 (ebf0e940, 2025-05-08)"
   xmlns:inkscape="http://www.inkscape.org/namespaces/inkscape"
   xmlns:sodipodi="http://sodipodi.sourceforge.net/DTD/sodipodi-0.dtd"
   xmlns="http://www.w3.org/2000/svg"
   xmlns:svg="http://www.w3.org/2000/svg">
  <defs
     id="defs33" />
  <sodipodi:namedview
     id="namedview33"
     pagecolor="#505050"
     bordercolor="#eeeeee"
     borderopacity="1"
     inkscape:showpageshadow="0"
     inkscape:pageopacity="0"
     inkscape:pagecheckerboard="0"
     inkscape:deskcolor="#505050"
     inkscape:zoom="0.28285089"
     inkscape:cx="1983.3772"
     inkscape:cy="913.90909"
     inkscape:window-width="1920"
     inkscape:window-height="1022"
     inkscape:window-x="0"
     inkscape:window-y="30"
     inkscape:window-maximized="0"
     inkscape:current-layer="svg33"
     showguides="true"
     inkscape:lockguides="false" />
  <metadata
     id="metadata1">null</metadata>
  <path
     d="m 30.492984,196.24968 c 1.956,-0.005 3.916,0.05 5.87,0.025 0.623,1.318 -0.104,3.732 -0.148,5.182 0.753,-0.268 1.149,-1.312 1.677,-1.89 1.019,-1.115 2.158,-2.049 3.509,-2.734 6.895,-3.499 15.229,-0.697 18.773,5.894 1.775,-2.148 2.928,-4.209 5.503,-5.648 7.311,-4.087 17.616,-1.24 20.197,7.015 2.145,6.857 0.793,15.259 0.78,22.35 -0.003,2.099 -0.328,4.558 0.144,6.601 -0.353,0.277 -1.12,0.102 -1.554,0.093 -1.45,-0.032 -2.928,0.147 -4.371,-0.011 -0.065,-6.391 0.064,-12.789 0.011,-19.183 -0.029,-3.468 0.127,-7.479 -2.106,-10.378 -4.21,-5.465 -12.908,-3.263 -15.816,2.275 -2.688,5.119 -1.39,12.501 -1.422,18.098 -0.017,2.956 -0.486,6.362 0.031,9.268 -1.922,-0.101 -3.869,-0.154 -5.786,0.015 -0.316,-0.575 -0.153,-1.624 -0.15,-2.285 0.006,-1.667 -0.015,-3.333 -0.012,-5 0.006,-4.149 0.011,-8.298 0.005,-12.447 -0.006,-3.34 0.042,-6.763 -1.928,-9.638 -4.063,-5.931 -12.855,-3.247 -15.891,2.151 -1.63,2.897 -1.369,6.469 -1.36,9.678 0.015,5.613 -0.761,11.904 0.089,17.445 -1.958,-0.035 -3.94,-0.073 -5.888,0.157 -0.48,-0.427 -0.196,-2.017 -0.184,-2.666 0.04,-2.225 0.055,-4.451 0.067,-6.676 0.051,-9.224 -0.185,-18.474 -0.04,-27.691 z"
     opacity="1"
     fill="#111212"
     fill-rule="evenodd"
     id="path1" />
  <path
     d="m 97.163984,211.53268 c 0.826,-5.515 4.095996,-10.752 8.972996,-13.552 8.285,-4.755 20.201,-2.619 25.694,5.287 1.489,2.142 2.44,4.551 2.955,7.099 0.436,2.159 0.741,4.32 0.424,6.522 -0.688,4.772 -3.017,9.931 -6.839,13.014 -10.623,8.57 -27.321,3.389 -30.770996,-9.849 -0.727,-2.789 -0.861,-5.678 -0.436,-8.521 z m 5.981996,1.008 c -0.566,5.275 1.279,10.974 5.745,14.113 8.535,6 19.334,-0.616 20.253,-10.304 0.458,-4.818 -1.39,-10.344 -5.405,-13.265 -8.254,-6.006 -19.533,-0.42 -20.593,9.456 z"
     opacity="1"
     fill="#131313"
     fill-rule="evenodd"
     id="path2" />
  <path
     d="m 146.10698,197.01768 c 0.833,-1.391 4.152,-0.615 5.668,-0.732 0.041,1.786 0.32,3.811 -0.063,5.567 0.944,-0.638 1.57,-1.818 2.357,-2.64 1.339,-1.398 3.073,-2.35 4.888,-2.973 1.956,-0.672 4.126,-0.9 6.185,-0.879 1.643,0.018 3.385,0.251 4.944,0.783 9.957,3.399 8.4,14.894 8.43,23.292 0.012,3.333 0.026,6.665 0.033,9.997 0.002,0.886 0.486,3.018 0.086,3.732 -1.997,0.01 -3.998,-0.082 -5.989,0.126 -0.401,-1.791 -0.034,-4.061 -0.031,-5.904 0.008,-4.288 -0.016,-8.576 -0.03,-12.865 -0.009,-2.756 0.166,-5.716 -0.727,-8.372 -2.715,-8.071 -13.922,-6.635 -18.17,-0.857 -2.02,2.587 -1.716,5.79 -1.698,8.914 0.026,4.412 0.079,8.823 0.081,13.235 0,1.711 0.413,4 0.043,5.648 -1.903,0.013 -3.807,0.012 -5.709,0.08 -0.439,-0.817 -0.213,-2.14 -0.23,-3.053 -0.046,-2.392 0.021,-4.788 0.024,-7.181 0.01,-8.638 -0.14,-17.28 -0.092,-25.918 z"
     opacity="1"
     fill="#131414"
     fill-rule="evenodd"
     id="path3" />
  <path
     d="m 188.15698,227.98668 c 0.892,-1.273 1.878,-2.415 2.961,-3.529 1.287,0.703 2.267,1.798 3.548,2.539 2.779,1.607 6.276,2.288 9.461,1.834 3.787,-0.54 7.526,-4.245 4.651,-8.09 -1.676,-2.242 -4.913,-3.097 -7.469,-3.831 -5.487,-1.576 -12.18,-4.129 -12.084,-10.941 0.136,-9.718 11.442,-12.046 19.06,-9.662 1.788,0.56 5.929,1.879 6.813,3.682 -0.589,0.84 -2.595,3.878 -3.658,3.86 -2.974,-2.822 -7.464,-4.108 -11.507,-3.368 -3.014,0.552 -5.577,2.749 -4.831,6.029 0.709,3.113 4.442,4.063 7.057,4.929 6.098,2.021 15.273,4.713 13.59,13.128 -2.103,10.511 -15.224,11.093 -23.206,7.325 -1.849,-0.873 -3.078,-2.173 -4.642,-3.4 0.085,-0.169 0.171,-0.337 0.256,-0.505 z"
     opacity="1"
     fill="#131212"
     fill-rule="evenodd"
     id="path4" />
  <path
     d="m 223.21598,221.03068 c 3.145,-10.412 15.941,-9.728 24.765,-11.342 -0.063,-2.007 -0.009,-4.097 -1.094,-5.872 -2.568,-4.2 -9.505,-3.726 -13.538,-2.281 -1.236,0.443 -2.541,1.068 -3.61,1.833 -0.58,0.416 -1.223,1.092 -1.958,1.069 -0.769,-1.391 -1.625,-2.721 -2.445,-4.082 2.675,-1.828 5.224,-3.236 8.404,-4.053 2.42,-0.621 5.002,-0.756 7.49,-0.625 1.809,0.096 3.508,0.433 5.194,1.108 9.396,3.758 7.234,15.219 7.179,23.324 -0.013,1.981 -0.535,4.957 0.329,6.772 0.527,0.456 1.09,0.731 1.686,1.08 -0.204,1.467 0.461,4.111 -0.542,5.301 -4.348,0.249 -6.113,-0.927 -6.676,-5.271 -3.129,2.499 -5.115,5.013 -9.306,5.935 -8.153,1.794 -17.859,-3.534 -15.878,-12.896 z m 5.929,0.483 c -1.162,6.255 5.346,8.66 10.415,7.448 5.397,-1.291 7.838,-4.889 8.237,-10.171 0.092,-1.22 0.638,-3.492 0.102,-4.585 -6.167,0.772 -16.127,0.468 -18.754,7.308 z"
     opacity="1"
     fill="#101010"
     fill-rule="evenodd"
     id="path5" />
  <path
     d="m 306.91984,151.36678 c -0.252,1.063 0.2,2.455 0.182,3.577 -0.039,2.405 -0.198,4.802 -0.363,7.2 -0.056,0.82 -0.592,2.626 0.086,3.16 -5.197,-1.554 -10.319,-5.515 -14.681,-8.638 -11.599,-8.303 -22.614,-17.865 -30.389,-29.979 2.276,-0.851 4.72,-0.781 6.947,-1.899 5.625,-2.825 6.868,-9.446 7.241,-15.14 1.13,0.617 1.723,3.017 2.338,4.144 2.092,3.833 3.89,7.84 6.141,11.585 3.221,5.359 6.83,10.482 11.104,15.054 3.598,3.85 7.837,7.098 11.394,10.936 z"
     opacity="1"
     fill="#ece4af"
     fill-rule="evenodd"
     id="path6" />
  <path
     d="m 302.65884,119.02178 c -0.848,-0.744 -1.27,0.472 -1.637,1.201 -0.863,1.716 -1.619,3.474 -2.505,5.18 -0.8,1.538 -1.678,3.123 -2.983,4.294 -1.059,0.95 -2.83,1.342 -2.951,2.909 -2.416,-2.858 -4.307,-6.305 -6.277,-9.486 -6.812,-10.997 -11.955,-23.015 -14.754,-35.662997 -1.468,-6.631 -1.855,-13.391 -3.13,-20.027 5.883,4.994 14.681,3.935 20.523,-0.577 2.264,-1.749 3.646,-4.077 5.559,-6.118 0.621,0.022 0.261,1.112 0.19,1.497 -0.311,1.679 -0.46,3.436 -0.559,5.141 -0.263,4.547 -0.223,9.084 -0.007,13.634 0.623,13.135 4.061,25.734997 8.531,38.014997 z"
     opacity="1"
     fill="#9ad1d1"
     fill-rule="evenodd"
     id="path7" />
  <path
     d="m 267.04198,180.29768 c 1.879,0.008 3.776,-0.075 5.65,0.062 -0.316,11.322 0.225,22.74 0.253,34.079 0.007,2.963 0.023,5.926 0.022,8.888 -10e-4,1.248 -0.136,2.851 0.663,3.9 1.548,2.031 4.158,-0.245 5.844,0.876 0.023,1.54 0.119,3.079 0.005,4.615 -3.96,1.895 -10.15,1.329 -11.989,-3.29 -1.334,-3.348 -0.539,-7.944 -0.549,-11.486 -0.021,-8.167 -0.086,-16.333 -0.062,-24.5 0.009,-2.98 0.06,-5.962 0.042,-8.942 -0.008,-1.332 -0.308,-2.94 0.121,-4.202 z"
     opacity="1"
     fill="#141514"
     fill-rule="evenodd"
     id="path8" />
  <path
     d="m 302.65884,119.02178 c 9.436,22.2 26.904,43.482 51.657,48.34 -0.501,1.082 -0.772,1.22 -1.939,1.108 -7.721,-0.74 -15.465,-2.087 -22.631,-5.18 -9.381,-4.048 -17.672,-10.317 -25.092,-17.253 -4.132,-3.862 -9.451,-8.325 -12.071,-13.431 0.121,-1.567 1.892,-1.959 2.951,-2.909 1.305,-1.171 2.183,-2.756 2.983,-4.294 0.886,-1.706 1.642,-3.464 2.505,-5.18 0.367,-0.729 0.789,-1.945 1.637,-1.201 z"
     opacity="1"
     fill="#49a19c"
     fill-rule="evenodd"
     id="path9" />
  <path
     d="m 285.20198,211.53868 c 0.383,-2.839 1.41,-5.696 2.975,-8.092 8.822,-13.509 31.523,-8.769 35.032,6.505 0.531,2.311 0.906,4.573 0.57,6.945 -0.67,4.725 -2.708,9.492 -6.423,12.635 -10.509,8.89 -27.699,4.408 -31.573,-8.98 -0.841,-2.909 -0.984,-6.023 -0.581,-9.013 z m 6.023,1.01 c -0.511,4.993 1.015,10.556 5.12,13.731 8.552,6.617 20.212,0.304 21.21,-9.886 0.55,-5.62 -1.92,-11.582 -7.047,-14.296 -8.22,-4.351 -18.354,1.377 -19.283,10.451 z"
     opacity="1"
     fill="#141415"
     fill-rule="evenodd"
     id="path10" />
  <path
     d="m 315.72584,93.361783 c -1.43,0.249 -2.39,2.571 -3.148,3.67 -2.11,3.057997 -4.806,5.686997 -7.293,8.428997 -1.071,1.18 -2.817,2.432 -2.884,4.131 -1.029,-1.72 -1.453,-4.025 -1.97,-5.95 -1.356,-5.040997 -2.314,-10.064997 -2.94,-15.249997 -1.798,-14.881 -0.734,-29.805 2.753,-44.371 1.651,-6.898 4.13,-13.452 6.295,-20.179 0.347,-0.141 1.912,2.715 2.286,3.241 1.412,1.988 3.379,3.579 5.571,4.646 6.73,3.274 13.428,1.319 19.581,-2.088 0.015,0.967 -0.782,1.572 -1.277,2.326 -0.767,1.168 -1.399,2.489 -2.061,3.72 -2.722,5.063 -5,10.328 -7,15.713 -3.188,8.585 -5.457,17.537 -6.676,26.617 -0.684,5.1 -0.687,10.246 -1.237,15.345 z"
     opacity="1"
     fill="#a394cd"
     fill-rule="evenodd"
     id="path11" />
  <path
     d="m 315.72584,93.361783 c 1.072,19.527997 5.322,38.434997 17.355,54.349997 3.288,4.349 6.914,8.116 11.133,11.581 2.005,1.647 3.995,3.6 6.352,4.726 0.463,0.232 1.848,0.541 2.115,0.981 0.238,0.391 -1.041,0.301 -1.084,0.29 -1.017,-0.247 -2.013,-0.656 -2.936,-1.149 -2.496,-1.336 -5.161,-2.342 -7.602,-3.797 -7.719,-4.602 -14.858,-9.744 -20.502,-16.887 -8.005,-9.811 -15.176,-21.415 -18.156,-33.865 0.067,-1.699 1.813,-2.951 2.884,-4.131 2.487,-2.742 5.183,-5.371 7.293,-8.428997 0.758,-1.099 1.718,-3.421 3.148,-3.67 z"
     opacity="1"
     fill="#585aa5"
     fill-rule="evenodd"
     id="path12" />
  <path
     d="m 306.91984,151.36678 c 3.891,3.317 7.739,6.548 12.202,9.1 5.302,3.032 11.243,5.092 17.047,6.901 5.472,1.706 11.588,2.996 17.155,1.893 1.26,-0.426 2.208,-0.049 3.414,-0.241 -0.992,0.742 -2.332,0.878 -3.512,1.125 -2.175,0.456 -4.321,1.029 -6.499,1.478 -9.314,1.923 -19.134,0.68 -28.191,-2.003 -4.013,-1.189 -7.771,-2.976 -11.711,-4.316 -0.678,-0.534 -0.142,-2.34 -0.086,-3.16 0.165,-2.398 0.324,-4.795 0.363,-7.2 0.018,-1.122 -0.434,-2.514 -0.182,-3.577 z"
     opacity="1"
     fill="#cbc066"
     fill-rule="evenodd"
     id="path13" />
  <path
     d="m 320.02284,76.917783 c 2.149,-0.573 4.11,-0.834 6.216,-1.633 0.526,-0.039 3.529,0.969 1.999,-1.231 4.575,-0.601 9.057,-2.993 13.06,-5.16 -0.481,1.35 -1.14,2.609 -1.713,3.923 -2.965,5.79 -4.741,12.752 -5.927,19.12 -3.832,20.581997 -1.353,45.039997 11.357,62.376997 2.087,2.847 4.783,4.864 7.295,7.287 0.253,0.251 0.955,0.742 0.919,1.124 -0.913,0.27 -3.159,-1.672 -3.9,-2.223 -3.613,-2.687 -6.936,-5.207 -9.934,-8.629 -0.846,-1.017 -1.663,-2.057 -2.494,-3.086 -13.358,-16.789 -18.811,-38.758 -18.212,-59.948997 0.113,-4.008 0.853,-7.952 1.334,-11.92 z"
     opacity="1"
     fill="#9e3696"
     fill-rule="evenodd"
     id="path14" />
  <path
     d="m 320.97584,71.804783 c 2.463,0.354 4.715,2.58 7.262,2.249 1.53,2.2 -1.473,1.192 -1.999,1.231 -2.106,0.799 -4.067,1.06 -6.216,1.633 0.19,-1.387 0.128,-4.024 0.953,-5.113 z"
     opacity="1"
     fill="#b443a4"
     fill-rule="evenodd"
     id="path15" />
  <path
     d="m 341.29784,68.893783 c -4.003,2.167 -8.485,4.559 -13.06,5.16 -2.547,0.331 -4.799,-1.895 -7.262,-2.249 -0.321,-1.712 0.662,-4.038 1.091,-5.706 1.252,-4.864 2.657,-9.802 4.542,-14.463 7.855,-19.424 19.066,-38.389 34.96,-52.40799987 0.742,0.978 0.328,3.92399997 0.7,5.22499997 1.154,4.042 3.614,7.6089999 7.223,9.8199999 3.067,1.879 6.72,3.074 10.33,3.139 1.152,0.021 2.319,-0.031 3.463,-0.169 0.281,-0.034 1.179,-0.205 1.37,0.092 0.176,0.274 -1.397,1.172 -1.563,1.298 -1.648,1.246 -3.244,2.568 -4.872,3.842 -4.339,3.394 -8.575,7.046 -12.422,10.993 -7.289,7.479 -13.87,16.06 -19.219,25.028 -1.948,3.267 -3.106,7.335 -5.281,10.398 z"
     opacity="1"
     fill="#d46fb4"
     fill-rule="evenodd"
     id="path16" />
  <path
     d="m 350.11784,58.314783 c 6.121,0.038 12.138,1.775 18.335,1.644 1.456,-0.031 3.89,0.419 5.196,-0.122 -0.971,1.019 -2.127,1.876 -3.134,2.865 -16.373,16.52 -27.052,37.896997 -27.427,61.457997 -0.122,7.696 0.637,15.724 3.038,23.074 0.909,2.785 2.152,5.789 3.792,8.215 0.184,0.273 1.588,2.164 1.315,2.474 -0.421,0.479 -1.575,-0.757 -1.858,-1.019 -1.54,-1.429 -2.419,-3.521 -3.398,-5.343 -4.226,-7.873 -7.718,-15.546 -9.469,-24.385 -4.61,-23.276 0.515,-49.012997 13.61,-68.860997 z"
     opacity="1"
     fill="#de2a5c"
     fill-rule="evenodd"
     id="path17" />
  <path
     d="m 391.17184,49.685783 c 0.282,0.771 -0.073,1.404 0.033,2.174 0.212,1.539 0.333,3.089 0.539,4.63 0.611,4.569 1.535,9.127 2.994,13.496 -1.783,1.924 -5.229,2.956 -7.414,4.481 -4.811,3.357 -9.461,7.011 -13.581,11.2 -18.919,19.236997 -30.428,49.774997 -18.416,75.507997 0.199,0.689 -0.317,0.787 -0.714,0.274 -0.046,-1.378 -1.311,-2.238 -1.817,-3.471 -1.307,-3.183 -2.691,-6.404 -3.848,-9.651 -2.435,-6.835 -3.158,-14.17 -3.657,-21.354 -0.496,-7.145 1.204,-15.369 3.197,-22.183 5.214,-17.822997 15.229,-32.414997 29.002,-44.726997 4.22,-3.772 8.787,-7.513 13.682,-10.377 z"
     opacity="1"
     fill="#eb6632"
     fill-rule="evenodd"
     id="path18" />
  <path
     d="m 335.14898,196.42168 c 1.73,-0.043 3.492,-0.028 5.216,-0.15 0.701,1.134 0.233,3.917 0.117,5.228 0.02,0.305 1.556,-1.499 1.826,-1.799 1.117,-1.237 2.604,-2.291 4.116,-2.984 4.707,-2.156 11.343,-1.914 15.603,1.151 4.387,3.156 5.312,8.714 5.345,13.768 0.046,7.147 -0.461,14.458 0.026,21.581 -1.843,-0.222 -3.883,-0.106 -5.726,0.046 -0.357,-0.391 -0.19,-1.588 -0.183,-2.129 0.027,-1.896 10e-4,-3.793 0,-5.689 -0.003,-4.471 0.076,-8.951 -0.009,-13.421 -0.055,-2.881 -0.229,-6.096 -2.131,-8.434 -4.59,-5.644 -14.019,-2.867 -17.378,2.603 -1.287,2.097 -1.107,4.637 -1.14,7.019 -0.058,4.235 0.032,8.474 -0.006,12.71 -0.02,2.166 -0.633,5.14 0.04,7.223 -1.917,-0.375 -4.049,0.092 -5.998,-0.026 0.018,-12.081 0.774,-24.397 -0.02,-36.456 0.101,-0.08 0.202,-0.161 0.302,-0.241 z"
     opacity="1"
     fill="#131414"
     fill-rule="evenodd"
     id="path19" />
  <path
     d="m 373.64884,59.836783 c -1.306,0.541 -3.74,0.091 -5.196,0.122 -6.197,0.131 -12.214,-1.606 -18.335,-1.644 11.256,-17.795 26.224,-33.559 44.612,-44.152 7.997,-4.6069999 16.367,-8.2509999 24.762,-12.0279999 -0.005,1.588 -1.105,3.289 -1.26,4.951 -0.491,5.2829999 1.185,10.7089999 4.633,14.7439999 1.995,2.333 4.58,4.296 7.354,5.606 0.637,0.301 3.292,1.087 3.494,1.697 -1.956,0.774 -4.255,0.79 -6.301,1.321 -4.149,1.079 -8.284,2.31 -12.306,3.796 -15.25,5.634 -29.769,14.233 -41.457,25.587 z"
     opacity="1"
     fill="#f37583"
     fill-rule="evenodd"
     id="path20" />
  <path
     d="m 352.37684,168.46978 c 1.167,0.112 1.438,-0.026 1.939,-1.108 1.319,0.237 2.725,0.738 3.993,1.156 0.208,0.544 -1.11,0.426 -1.571,0.502 -1.206,0.192 -2.154,-0.185 -3.414,0.241 -0.298,-0.391 -0.678,-0.363 -0.947,-0.791 z"
     opacity="0.996"
     fill="#c8e5e6"
     fill-rule="evenodd"
     id="path21" />
  <path
     d="m 377.15498,211.04068 c 0.822,-4.375 2.291,-8.705 5.513,-11.945 5.064,-5.093 13.942,-6.679 20.459,-3.514 1.931,0.938 3.287,2.381 4.794,3.858 0.492,-1.546 -0.045,-3.859 -0.049,-5.495 -0.01,-4.71 -0.606,-10.195 0.198,-14.816 3.105,0.078 6.27,0.16 9.373,0.003 0.212,12.258 0.004,24.546 0.01,36.808 0.003,5.542 -0.746,11.697 0.098,17.173 -2.265,0.059 -4.546,-0.042 -6.815,-0.016 -0.568,0.007 -1.73,0.396 -2.187,0.093 0.002,-0.709 0.018,-5.085 -0.54,-5.017 -5.407,8.008 -17.95,7.283 -24.599,1.364 -5.022,-4.47 -7.225,-11.932 -6.255,-18.496 z m 9.959,-0.029 c -0.981,4.532 0.518,10.863 4.717,13.409 5.414,3.282 14.084,1 15.602,-5.601 1.032,-4.49 1.07,-9.929 -2.349,-13.44 -5.995,-6.158 -16.236,-2.379 -17.97,5.632 z"
     opacity="1"
     fill="rgb(23,24,24)"
     fill-rule="evenodd"
     id="path22"
     style="fill:#7c2808;fill-opacity:1" />
  <path
     d="m 394.73784,69.985783 c -1.459,-4.369 -2.383,-8.927 -2.994,-13.496 -0.206,-1.541 -0.327,-3.091 -0.539,-4.63 -0.106,-0.77 0.249,-1.403 -0.033,-2.174 1.583,-1.792 4.327,-2.918 6.409,-4.047 3.882,-2.106 7.767,-4.149 11.824,-5.903 15.14,-6.545 31.279,-10.044 47.735,-10.72 4.566,-0.187 9.574,-0.693 14.115,-0.16 -0.931,1.684 -2.811,2.967 -3.847,4.698 -2.779,4.645 -3.213,10.652 -1.733,15.801 0.901,3.135 2.388,6.231 4.351,8.839 0.576,0.764 1.188,1.531 1.894,2.182 0.187,0.173 1.447,1.114 1.34,1.261 -6.018,-1.4 -11.806,-2.94 -17.989,-3.64 -14.052,-1.593 -29.269,-0.12 -42.74,4.193 -6.283,2.012 -11.842,5.093 -17.793,7.796 z"
     opacity="1"
     fill="#f7ab65"
     fill-rule="evenodd"
     id="path23" />
  <path
     d="m 428.72998,196.03768 c 0.085,-0.541 0.035,-0.189 0.118,-1.062 3.129,0.138 6.537,0.228 9.663,-0.077 0.622,6.199 -0.011,12.805 -0.019,19.042 -0.004,2.957 -0.359,6.51 1.377,9.1 3.453,5.155 12.29,2.408 14.618,-2.392 1.14,-2.352 0.629,-5.712 0.623,-8.249 -0.013,-5.76 0.08,-11.537 -0.048,-17.294 2.944,-0.677 6.671,-0.404 9.682,-0.218 -0.093,8.68 -0.018,17.377 -0.021,26.063 -0.001,3.943 0.604,8.463 -0.082,12.34 -2.742,-0.135 -6.252,0.647 -8.849,-0.094 -0.078,-1.404 -0.097,-2.782 -0.09,-4.192 0.002,-0.243 0.139,-1.058 -0.061,-1.276 -0.182,-0.198 -0.342,0.245 -0.35,0.26 -6.035,8.564 -20.12,8.196 -24.905,-1.326 -1.77,-3.521 -1.411,-7.411 -1.583,-11.221 -0.29,-6.425 -0.295,-12.977 -0.073,-19.404 z"
     opacity="1"
     fill="rgb(23,23,24)"
     fill-rule="evenodd"
     id="path24"
     style="fill:#7c2808;fill-opacity:1" />
  <path
     d="m 475.97398,179.21368 c 3.15,0.038 6.322,0.081 9.471,-0.026 0.336,0.931 0.065,2.254 0.038,3.241 -0.064,2.334 -0.033,4.676 -0.034,7.011 -0.004,7.834 0.035,15.667 0.028,23.501 -0.003,2.667 -0.024,5.334 -0.011,8.001 0.006,1.167 -0.125,2.612 0.633,3.574 1.432,1.001 3.702,0.777 5.345,0.558 0.277,2.419 0.524,5.303 0.364,7.733 -5.627,2.384 -13.547,1.088 -15.462,-5.45 -1.42,-4.846 -0.393,-10.9 -0.421,-15.91 -0.06,-10.677 -0.553,-21.579 0.049,-32.233 z"
     opacity="1"
     fill="rgb(24,24,25)"
     fill-rule="evenodd"
     id="path25"
     style="fill:#7c2808;fill-opacity:1" />
  <path
     d="m 499.18798,182.53568 c 1.093,-7.452 12.131,-5.145 11.117,2.109 -0.516,3.685 -5.239,5.915 -8.489,4.025 -2.117,-1.231 -2.969,-3.803 -2.628,-6.134 z"
     opacity="1"
     fill="rgb(21,21,22)"
     fill-rule="evenodd"
     id="path26"
     style="fill:#7c2808;fill-opacity:1" />
  <path
     d="m 500.11598,195.50768 c 0.029,-0.242 0.057,-0.484 0.085,-0.726 3.163,0.078 6.413,-0.285 9.561,-0.026 -0.767,12.77 0.21,25.648 -0.151,38.433 -3.09,-0.141 -6.395,-0.268 -9.454,0.226 -0.667,-5.689 -0.108,-11.746 -0.106,-17.473 0.004,-6.744 -0.501,-13.716 0.065,-20.434 z"
     opacity="1"
     fill="rgb(23,24,24)"
     fill-rule="evenodd"
     id="path27"
     style="fill:#7c2808;fill-opacity:1" />
  <path
     d="m 516.79798,194.74768 c 2.494,0.011 5.004,-0.029 7.504,-0.055 0.861,-0.009 2.209,-0.318 2.897,0.184 2.069,6.534 4.977,13.102 7.504,19.493 1.14,2.882 2.509,5.975 3.029,9.028 0.523,-0.262 0.713,-1.544 0.831,-2.052 0.435,-1.869 1.135,-3.601 1.77,-5.409 2.482,-7.073 5.011,-14.2 7.833,-21.142 3.363,-0.015 6.837,0.251 10.183,-0.041 -2.73,7.882 -6.515,15.501 -9.664,23.232 -2.014,4.944 -3.378,10.76 -6.034,15.376 -3.118,0.247 -6.319,-0.39 -9.42,0.103 -0.666,-0.798 -0.907,-1.869 -1.33,-2.808 -1.13,-2.507 -2.203,-5.029 -3.292,-7.554 -4.025,-9.335 -7.084,-19.351 -11.811,-28.355 z"
     opacity="1"
     fill="rgb(22,22,22)"
     fill-rule="evenodd"
     id="path28"
     style="fill:#7c2808;fill-opacity:1" />
  <path
     d="m 565.07898,195.33768 c 1.566,-1.125 5.237,-0.483 7.169,-0.51 0.724,-0.011 1.667,-0.14 2.34,0.132 0.07,1.999 -0.444,4.489 0.083,6.407 1.027,0.066 2.861,-3.373 3.769,-4.208 2.375,-2.184 6.878,-3.844 10.149,-3.139 -0.137,3.169 -0.091,6.352 -0.299,9.507 -0.897,0.63 -3.108,0.128 -4.184,0.22 -2.009,0.173 -3.902,1.182 -5.495,2.372 -3.83,2.858 -3.935,7.308 -3.94,11.646 -0.006,5.142 -0.1,10.291 -0.056,15.431 -3.112,-0.085 -6.296,-0.206 -9.396,0.112 -0.378,-0.902 -0.073,-2.377 -0.079,-3.368 -0.015,-2.667 -0.015,-5.335 -0.02,-8.003 -0.016,-8.859 -0.22,-17.743 -0.041,-26.599 z"
     opacity="1"
     fill="rgb(22,22,23)"
     fill-rule="evenodd"
     id="path29"
     style="fill:#7c2808;fill-opacity:1" />
  <path
     d="m 593.67498,210.53668 c 0.929,-4.435 2.613,-8.723 6.022,-11.887 6.828,-6.339 19.961,-6.359 26.527,0.369 4.615,4.729 5.937,11.745 5.148,18.143 -0.615,0.269 -1.735,0.049 -2.397,0.049 -1.911,0.001 -3.822,-0.037 -5.733,-0.041 -6.732,-0.015 -13.53,-0.258 -20.248,0.145 -0.184,1.507 0.787,3.018 1.622,4.214 3.173,4.541 9.614,5.775 14.676,3.929 1.976,-0.72 3.111,-2.594 4.933,-3.373 1.811,1.582 3.673,3.23 5.423,4.881 -1.619,2.726 -4.882,4.611 -7.737,5.717 -6.733,2.608 -15.302,1.855 -21.136,-2.561 -5.926,-4.485 -8.261,-12.424 -7.1,-19.585 z m 9.507,-1.01 c -0.149,0.77 -0.077,0.375 -0.215,1.186 6.236,-0.574 12.948,-0.153 19.214,0.048 0.036,-7.311 -7.659,-11.454 -14.045,-8.126 -2.729,1.422 -4.196,4.008 -4.954,6.892 z"
     opacity="1"
     fill="rgb(23,24,24)"
     fill-rule="evenodd"
     id="path30"
     style="fill:#7c2808;fill-opacity:1" />
  <path
     d="m 638.59098,227.44968 c 2.043,-5.152 10.215,-1.222 8.178,3.673 -2.261,5.432 -10.365,1.841 -8.178,-3.673 z"
     opacity="1"
     fill="rgb(19,19,19)"
     fill-rule="evenodd"
     id="path31"
     style="fill:#000000;fill-opacity:1" />
  <path
     d="m 653.00598,197.62868 c 1.733,-0.194 3.743,-0.311 5.472,-0.035 -0.954,-4.212 0.279,-10.456 3.632,-13.293 3.596,-3.043 9.665,-2.626 13.563,-0.371 -0.419,1.444 -0.724,2.926 -1.167,4.36 -0.536,0.254 -1.171,-0.313 -1.702,-0.484 -1.301,-0.419 -2.747,-0.64 -4.112,-0.615 -5.718,0.105 -4.389,6.575 -4.693,10.432 2.883,0.363 6.147,-0.131 9.07,-0.15 -0.047,1.545 -0.104,3.166 -0.061,4.705 -2.981,0.127 -5.98,-0.011 -8.962,0.078 -0.098,6.893 -0.083,13.788 -0.076,20.683 0.003,3.256 -0.537,7.066 0.078,10.259 -1.799,-0.042 -3.593,0.003 -5.39,0.114 -0.931,-2.942 -0.153,-7.284 -0.148,-10.365 0.013,-6.799 -0.777,-14.106 0.04,-20.847 -1.661,0.166 -3.434,0.107 -5.109,0.099 -0.711,-0.89 -0.361,-3.46 -0.435,-4.57 z"
     opacity="1"
     fill="rgb(14,15,15)"
     fill-rule="evenodd"
     id="path32"
     style="fill:#000000;fill-opacity:1" />
  <path
     d="m 680.38998,197.62368 c 1.851,-0.129 3.662,-0.068 5.513,-0.031 0.888,1.323 0.476,5.174 0.303,6.796 1.305,-0.804 2.113,-3.087 3.227,-4.239 2.838,-2.935 6.614,-3.757 10.554,-3.184 0.165,1.939 -0.473,3.759 -0.447,5.681 -1.931,-0.007 -3.945,-0.175 -5.805,0.462 -9.154,3.133 -7.636,13.802 -7.638,21.4 -10e-4,2.939 -0.173,5.922 -0.036,8.855 -1.766,-0.136 -3.592,0.13 -5.339,-0.072 -0.057,-11.854 0.161,-23.825 -0.332,-35.668 z"
     opacity="1"
     fill="#0f0f10"
     fill-rule="evenodd"
     id="path33" />
  <g
     inkscape:groupmode="layer"
     id="layer1"
     inkscape:label="Layer 1" />
</svg>
